<svg xmlns="http://www.w3.org/2000/svg" version="1.1" viewBox="-5.0 -10.0 110.0 135.0">
 <path d="m38.992 72.988c-1.293 0-2.3438-1.0469-2.3438-2.3438v-12.297c0-1.293 1.0508-2.3438 2.3438-2.3438h22.016c1.293 0 2.3438 1.0508 2.3438 2.3438v4.332c0 1.293-1.0508 2.3438-2.3438 2.3438-1.293 0-2.3438-1.0508-2.3438-2.3438v-1.9883h-17.328v9.9531c0 1.2969-1.0508 2.3438-2.3438 2.3438z"/>
 <path d="m75 60.691h-50c-3.875 0-7.0312-3.1523-7.0312-7.0312v-31.785c0-3.875 3.1562-7.0312 7.0312-7.0312h50c3.875 0 7.0312 3.1562 7.0312 7.0312v31.785c0 3.8789-3.1562 7.0312-7.0312 7.0312zm-50-41.16c-1.293 0-2.3438 1.0508-2.3438 2.3438v31.785c0 1.293 1.0508 2.3438 2.3438 2.3438h50c1.293 0 2.3438-1.0508 2.3438-2.3438v-31.785c0-1.293-1.0508-2.3438-2.3438-2.3438z"/>
 <path d="m43.816 41.539h-12.367c-1.293 0-2.3438-1.0469-2.3438-2.3438v-12.5c0-1.293 1.0508-2.3438 2.3438-2.3438h12.367c1.293 0 2.3438 1.0508 2.3438 2.3438v12.5c0 1.2969-1.0508 2.3438-2.3438 2.3438zm-10.023-4.6875h7.6797v-7.8125h-7.6797z"/>
 <path d="m56.184 41.539h-12.367c-1.293 0-2.3438-1.0469-2.3438-2.3438v-12.5c0-1.293 1.0508-2.3438 2.3438-2.3438h12.367c1.293 0 2.3438 1.0508 2.3438 2.3438v12.5c0 1.2969-1.0508 2.3438-2.3438 2.3438zm-10.023-4.6875h7.6797v-7.8125h-7.6797z"/>
 <path d="m68.551 41.539h-12.367c-1.293 0-2.3438-1.0469-2.3438-2.3438v-12.5c0-1.293 1.0508-2.3438 2.3438-2.3438h12.367c1.293 0 2.3438 1.0508 2.3438 2.3438v12.5c0 1.2969-1.0508 2.3438-2.3438 2.3438zm-10.023-4.6875h7.6797v-7.8125h-7.6797z"/>
 <path d="m58.828 51.18h-17.656c-1.293 0-2.3438-1.0469-2.3438-2.3438 0-1.293 1.0508-2.3438 2.3438-2.3438h17.656c1.293 0 2.3438 1.0508 2.3438 2.3438 0 1.2969-1.0508 2.3438-2.3438 2.3438z"/>
 <path d="m20.312 48.938h-7.8125c-3.875 0-7.0312-3.1562-7.0312-7.0312v-8.2812c0-3.875 3.1562-7.0312 7.0312-7.0312h7.8125c1.293 0 2.3438 1.0508 2.3438 2.3438v17.656c0 1.293-1.0508 2.3438-2.3438 2.3438zm-7.8125-17.656c-1.293 0-2.3438 1.0547-2.3438 2.3438v8.2812c0 1.2891 1.0508 2.3438 2.3438 2.3438h5.4688v-12.969z"/>
 <path d="m87.5 48.938h-7.8125c-1.293 0-2.3438-1.0508-2.3438-2.3438v-17.656c0-1.293 1.0508-2.3438 2.3438-2.3438h7.8125c3.875 0 7.0312 3.1562 7.0312 7.0312v8.2812c0 3.875-3.1562 7.0312-7.0312 7.0312zm-5.4688-4.6875h5.4688c1.293 0 2.3438-1.0547 2.3438-2.3438v-8.2812c0-1.2891-1.0508-2.3438-2.3438-2.3438h-5.4688z"/>
 <path d="m63.422 87.266h-26.844v7.2656h26.844z"/>
 <path d="m74.938 68.297h-49.875c-3.875 0-7.0312 3.1562-7.0312 7.0312v16.859c0 1.2969 1.0469 2.3438 2.3438 2.3438h11.516v-9.6094c0-1.2969 1.0469-2.3438 2.3438-2.3438h31.531c1.2969 0 2.3438 1.0469 2.3438 2.3438v9.6094h11.516c1.2969 0 2.3438-1.0469 2.3438-2.3438v-16.859c0-3.875-3.1562-7.0312-7.0312-7.0312zm-45.328 10.219c-0.09375 0.10938-0.21875 0.20312-0.34375 0.29688-0.125 0.078125-0.26562 0.15625-0.40625 0.21875-0.14062 0.046875-0.29688 0.09375-0.4375 0.125-0.15625 0.03125-0.3125 0.046875-0.46875 0.046875-0.14062 0-0.29688-0.015625-0.45312-0.046875s-0.29688-0.078125-0.4375-0.125c-0.14062-0.0625-0.28125-0.14062-0.40625-0.21875-0.125-0.09375-0.25-0.1875-0.35938-0.29688s-0.20312-0.21875-0.28125-0.35938c-0.09375-0.125-0.15625-0.25-0.21875-0.39062-0.0625-0.15625-0.10938-0.29688-0.14062-0.45312-0.03125-0.14062-0.046875-0.29688-0.046875-0.45312s0.015625-0.29688 0.046875-0.45312 0.078125-0.29688 0.14062-0.4375 0.125-0.28125 0.21875-0.40625c0.078125-0.125 0.17188-0.25 0.28125-0.35938s0.23438-0.20312 0.35938-0.29688c0.125-0.078125 0.26562-0.15625 0.40625-0.20312 0.14062-0.0625 0.28125-0.10938 0.4375-0.14062 0.29688-0.0625 0.60938-0.0625 0.92188 0 0.14062 0.03125 0.29688 0.078125 0.4375 0.14062 0.14062 0.046875 0.28125 0.125 0.40625 0.20312 0.125 0.09375 0.25 0.1875 0.34375 0.29688 0.10938 0.10938 0.21875 0.23438 0.29688 0.35938s0.15625 0.26562 0.21875 0.40625 0.09375 0.28125 0.125 0.4375 0.046875 0.29688 0.046875 0.45312c0 0.60938-0.25 1.2188-0.6875 1.6562zm44.734-1.2031c-0.03125 0.15625-0.078125 0.3125-0.14062 0.45312s-0.125 0.26562-0.21875 0.39062c-0.078125 0.14062-0.17188 0.25-0.28125 0.35938-0.4375 0.4375-1.0469 0.6875-1.6562 0.6875-0.15625 0-0.3125-0.015625-0.46875-0.046875-0.14062-0.03125-0.29688-0.078125-0.4375-0.125-0.14062-0.0625-0.28125-0.14062-0.40625-0.21875-0.125-0.09375-0.25-0.1875-0.34375-0.29688-0.4375-0.4375-0.6875-1.0312-0.6875-1.6562 0-0.60938 0.25-1.2188 0.6875-1.6562 0.10938-0.10938 0.21875-0.20312 0.34375-0.29688 0.125-0.078125 0.26562-0.15625 0.40625-0.20312 0.14062-0.0625 0.29688-0.10938 0.4375-0.14062 0.76562-0.15625 1.5781 0.09375 2.125 0.64062 0.4375 0.4375 0.6875 1.0469 0.6875 1.6562 0 0.15625-0.015625 0.3125-0.046875 0.45312z"/>
 <path d="m88.469 31.375c-1.293 0-2.3438-1.0469-2.3438-2.3438v-13.766c0-1.2969 1.0508-2.3438 2.3438-2.3438s2.3438 1.0469 2.3438 2.3438v13.766c0 1.2969-1.0508 2.3438-2.3438 2.3438z"/>
 <path d="m88.461 17.613c-3.3438 0-6.0664-2.7227-6.0664-6.0703 0-3.3438 2.7227-6.0664 6.0664-6.0664 3.3477 0 6.0703 2.7188 6.0703 6.0664 0 3.3477-2.7227 6.0703-6.0703 6.0703zm0-7.4492c-0.75781 0-1.3789 0.61719-1.3789 1.3789s0.61719 1.3828 1.3789 1.3828c0.76562 0 1.3828-0.62109 1.3828-1.3828s-0.61719-1.3789-1.3828-1.3789z"/>
 <path d="m11.531 31.383c-1.293 0-2.3438-1.0469-2.3438-2.3438v-13.773c0-1.2969 1.0508-2.3438 2.3438-2.3438s2.3438 1.0469 2.3438 2.3438v13.773c0 1.2969-1.0508 2.3438-2.3438 2.3438z"/>
 <path d="m11.539 17.613c-3.3477 0-6.0703-2.7227-6.0703-6.0703 0-3.3438 2.7227-6.0664 6.0703-6.0664 3.3438 0 6.0664 2.7188 6.0664 6.0664 0 3.3477-2.7227 6.0703-6.0664 6.0703zm0-7.4492c-0.76172 0-1.3828 0.61719-1.3828 1.3789s0.61719 1.3828 1.3828 1.3828c0.76172 0 1.3789-0.62109 1.3789-1.3828s-0.61719-1.3789-1.3789-1.3789z"/>
<text x="0.0" y="117.5" font-size="5.0" font-weight="bold" font-family="Arbeit Regular, Helvetica, Arial-Unicode, Arial, Sans-serif" fill="#000000">Created by Eklip Studio</text><text x="0.0" y="122.5" font-size="5.0" font-weight="bold" font-family="Arbeit Regular, Helvetica, Arial-Unicode, Arial, Sans-serif" fill="#000000">from Noun Project</text></svg>